<?xml version="1.0" encoding="utf-8"?>
<!-- Generator: Adobe Illustrator 16.0.0, SVG Export Plug-In . SVG Version: 6.00 Build 0)  -->
<!DOCTYPE svg PUBLIC "-//W3C//DTD SVG 1.1//EN" "http://www.w3.org/Graphics/SVG/1.1/DTD/svg11.dtd">
<svg version="1.1" id="圖層_1" xmlns="http://www.w3.org/2000/svg" xmlns:xlink="http://www.w3.org/1999/xlink" x="0px" y="0px"
	 width="328.25px" height="32.88px" viewBox="0 25.037 328.25 32.88" enable-background="new 0 25.037 328.25 32.88"
	 xml:space="preserve">
<g>
	<path fill="#FFFFFF" d="M142.478,48.314l6.889,9.492h7.47l-6.592-9.894c1.723-0.649,3.98-2.313,5.586-6.427
		c0,0,1.324-3.092,1.835-6.111c1.727-10.21-3.997-10.338-5.031-10.338c-0.748,0-17.753,0-28.217,0c-4.116,0-7.024,0-7.024,0v32.88
		c0,0,2.868,0,7.024,0l-0.009-9.603C130.318,48.314,137.067,48.314,142.478,48.314z M124.407,32.434h0.009h23.475
		c3.747,0,3.003,2.33,2.412,4.843c-0.922,3.945-2.685,4.597-5.477,4.597c-2.798,0-20.418,0-20.418,0L124.407,32.434L124.407,32.434z
		"/>
	<path fill="#FFFFFF" d="M70.381,25.037h34.477c0,0,3.117,0.184,2.685,4.297c-0.432,4.109-0.911,10.78-0.96,11.368
		c-0.055,0.6-0.58,3.06-5.702,3.06c-3.729,0-23.318,0-23.318,0v7.855h28.244l-0.469,6.3H70.292V42.503
		c0-3.563,3.462-3.651,3.462-3.651h27.728V31.6h-31.1L70.381,25.037L70.381,25.037z"/>
	<path fill="#FFFFFF" d="M308.471,25.037c0.579,0,1.146,0.148,1.697,0.451c0.559,0.297,0.988,0.725,1.297,1.281
		c0.31,0.553,0.465,1.133,0.465,1.734c0,0.596-0.152,1.173-0.457,1.724c-0.31,0.552-0.73,0.979-1.283,1.283
		c-0.55,0.306-1.12,0.457-1.718,0.457c-0.603,0-1.177-0.152-1.726-0.457c-0.551-0.305-0.978-0.73-1.284-1.283
		c-0.302-0.55-0.46-1.128-0.46-1.724c0-0.601,0.158-1.182,0.471-1.734c0.306-0.555,0.744-0.983,1.297-1.281
		C307.323,25.185,307.887,25.037,308.471,25.037z M308.471,25.609c-0.488,0-0.96,0.127-1.425,0.375
		c-0.458,0.25-0.816,0.61-1.075,1.074c-0.261,0.459-0.389,0.948-0.389,1.445c0,0.501,0.125,0.98,0.381,1.435
		c0.253,0.459,0.608,0.815,1.067,1.073c0.458,0.254,0.94,0.381,1.439,0.381c0.497,0,0.979-0.127,1.436-0.381
		c0.459-0.258,0.814-0.614,1.073-1.073c0.25-0.454,0.377-0.934,0.377-1.435c0-0.498-0.128-0.986-0.386-1.445
		c-0.26-0.464-0.618-0.823-1.08-1.074C309.426,25.736,308.955,25.609,308.471,25.609z M306.952,30.42v-3.731h1.279
		c0.439,0,0.754,0.034,0.949,0.104c0.198,0.069,0.35,0.186,0.467,0.359c0.115,0.173,0.176,0.356,0.176,0.55
		c0,0.268-0.096,0.509-0.293,0.706c-0.192,0.204-0.455,0.318-0.774,0.346c0.134,0.054,0.241,0.119,0.318,0.194
		c0.149,0.146,0.33,0.394,0.553,0.741l0.452,0.73h-0.738l-0.328-0.589c-0.257-0.465-0.468-0.75-0.628-0.868
		c-0.108-0.087-0.271-0.128-0.48-0.128h-0.354v1.585L306.952,30.42L306.952,30.42z M307.551,28.322h0.728
		c0.353,0,0.591-0.055,0.715-0.16c0.128-0.102,0.195-0.237,0.195-0.413c0-0.109-0.033-0.207-0.098-0.295
		c-0.056-0.088-0.143-0.15-0.249-0.2c-0.113-0.04-0.316-0.063-0.606-0.063h-0.684L307.551,28.322L307.551,28.322z"/>
	<path fill="#FFFFFF" d="M179.087,40.686c-4.776-0.469-9.293-0.916-9.675-6.131c-0.136-1.721,0.297-3.22,1.288-4.449
		c1.856-2.432,5.243-3.346,7.787-3.383l0.201-0.005c2.998,0,5.648,0.99,7.247,2.704c0.808,0.891,1.321,1.924,1.577,3.136
		l0.106,0.848l1.588-0.31l-0.108-0.813c-0.929-4.959-5.874-7.173-10.364-7.173c-3.905,0-7.4,1.507-9.354,4.034
		c-1.212,1.587-1.755,3.505-1.564,5.529c0.454,6.559,6.074,7.118,11.034,7.616c4.375,0.44,8.511,0.853,9.383,4.878
		c0.443,2.132,0,4.093-1.279,5.671c-1.75,2.149-4.924,3.485-8.292,3.485c-4.255,0-9.022-2.322-9.472-6.647l-0.115-0.759l-1.63,0.202
		l0.109,0.765c0.55,5.221,6.109,8.034,11.064,8.034c3.9,0,7.613-1.593,9.682-4.153c1.578-1.951,2.11-4.349,1.554-6.927
		C188.741,41.646,183.833,41.157,179.087,40.686z"/>
	<path fill="#FFFFFF" d="M208.832,44.239l-12.671-18.757h-1.425v32.122h1.594V28.494l11.988,17.834h1.069l11.987-17.834v29.109
		h1.602V25.483h-1.427L208.832,44.239z"/>
	<path fill="#FFFFFF" d="M239.232,25.037l-12.887,32.568h1.752l4.235-10.473h15.145l4.16,10.182l0.114,0.291h1.753l-12.887-32.568
		H239.232z M233.008,45.535l6.896-17.815l6.941,17.815H233.008z"/>
	<path fill="#FFFFFF" d="M268.162,44.639c3.029,0,5.569-1.041,7.362-3c1.584-1.738,2.459-4.074,2.459-6.582
		c0-4.611-3.071-9.575-9.821-9.575h-11.244v32.122h1.597v-30.48h9.648c5.649,0,8.226,4.128,8.226,7.958
		c0,2.09-0.729,4.039-2.049,5.478c-1.492,1.625-3.626,2.483-6.177,2.483h-6.518v1.34l14.494,13.104l0.136,0.121h2.41l-14.349-12.967
		L268.162,44.639L268.162,44.639z"/>
	<path fill="#FFFFFF" d="M279.075,25.483v1.641h10.78V57.74h1.597V27.123h10.778v-1.641L279.075,25.483L279.075,25.483z"/>
</g>
<g>
	<path fill="#DE1615" d="M57.489,25.037c-1.045,0-35.567,0-35.567,0l-0.059,32.88c0,0,28.708,0,30.692,0
		c0,0,7.078-0.183,8.167-6.914c0,0,1.337-12.458,1.848-15.518C64.321,25.166,58.534,25.037,57.489,25.037z M54.504,47.381
		c-0.579,3.823-2.675,4.016-4.907,4.016c-2.833,0-20.637,0-20.637,0V32.517h23.732c3.798,0,3.18,2.373,2.967,4.969
		C55.463,39.857,54.943,44.475,54.504,47.381z"/>
</g>
</svg>
